<?xml version="1.0" standalone="no"?>
<!DOCTYPE svg PUBLIC "-//W3C//DTD SVG 20010904//EN"
 "http://www.w3.org/TR/2001/REC-SVG-20010904/DTD/svg10.dtd">
<svg version="1.0" xmlns="http://www.w3.org/2000/svg"
 width="512.000000pt" height="512.000000pt" viewBox="0 0 512.000000 512.000000"
 preserveAspectRatio="xMidYMid meet">
<metadata>
Created by potrace 1.14, written by Peter Selinger 2001-2017
</metadata>
<g transform="translate(0.000000,512.000000) scale(0.100000,-0.100000)"
fill="#000000" stroke="none">
<path d="M1055 4983 c-9 -38 -18 -75 -20 -83 -2 -8 -8 -35 -15 -60 -7 -25 -14
-53 -16 -63 -2 -10 -6 -27 -9 -37 -3 -10 -8 -27 -10 -37 -2 -10 -36 -144 -75
-298 -40 -154 -73 -287 -75 -295 -2 -8 -22 -87 -45 -175 -22 -88 -97 -383
-166 -655 -69 -272 -134 -529 -145 -570 -11 -41 -22 -82 -24 -90 -3 -14 -196
-775 -256 -1010 -16 -63 -31 -124 -34 -135 -2 -11 -26 -104 -52 -207 -26 -103
-45 -189 -43 -192 4 -3 442 -117 505 -131 11 -2 54 -13 95 -24 103 -27 689
-176 830 -211 63 -15 122 -30 130 -34 8 -3 26 -8 40 -10 14 -3 167 -42 340
-86 173 -44 326 -83 340 -86 14 -3 68 -17 120 -31 52 -14 102 -26 110 -28 8
-2 62 -15 120 -30 58 -15 112 -28 120 -30 8 -2 121 -31 250 -64 129 -33 386
-98 570 -145 184 -47 350 -89 367 -95 18 -5 35 -6 37 -3 4 8 104 394 111 431
2 13 9 38 14 55 6 17 69 265 141 551 73 286 161 635 197 775 36 140 67 266 69
280 3 14 7 32 10 40 6 15 85 322 98 378 2 10 27 107 55 216 28 110 53 209 56
220 2 12 29 120 60 241 32 121 59 227 60 235 2 8 22 87 45 175 23 88 45 176
50 195 4 19 17 68 27 108 14 51 16 75 9 78 -36 13 -365 95 -383 96 -5 0 -15 4
-24 9 -9 4 -30 11 -48 14 -17 3 -57 12 -89 21 -31 8 -66 17 -76 19 -27 6 -529
133 -591 150 -129 35 -173 46 -215 56 -89 21 -118 28 -290 72 -157 41 -673
173 -710 182 -44 11 -238 59 -320 81 -113 29 -72 18 -370 94 -135 34 -253 63
-263 65 -10 2 -51 13 -91 24 -40 11 -83 22 -97 25 -28 7 -135 34 -274 70 -55
14 -107 26 -116 26 -12 0 -21 -18 -34 -67z"/>
</g>
</svg>
